<?xml version="1.0" encoding="utf-8"?>
<!-- Generator: Adobe Illustrator 18.0.0, SVG Export Plug-In . SVG Version: 6.00 Build 0)  -->
<!DOCTYPE svg PUBLIC "-//W3C//DTD SVG 1.1//EN" "http://www.w3.org/Graphics/SVG/1.1/DTD/svg11.dtd">
<svg version="1.1" id="Capa_1" xmlns="http://www.w3.org/2000/svg" xmlns:xlink="http://www.w3.org/1999/xlink" x="0px" y="0px"
	 viewBox="0 0 535 115.1" enable-background="new 0 0 535 115.1" xml:space="preserve">
<g>
	<path fill="#4EA2C6" d="M106.3,114.2h-0.2l-99.2-0.5c-2.8,0-5.2-2.2-5.4-5C-1.4,74.4-0.1,39.8,5.3,5.8C5.7,3.2,8,1.2,10.7,1.2
		l102.4,1.9c1.5,0,2.9,0.7,3.9,1.7c1,1.1,1.5,2.5,1.5,4c-1.6,31.8-2.9,64-3.7,95.8c-0.1,4.4-1.7,7.2-4.6,8.7
		C108.8,114.1,107.4,114.2,106.3,114.2z M12,102.8l92,0.6c0.7-29.7,1.9-59.7,3.4-89.4l-92-1.7C10.9,42.2,9.8,72.6,12,102.8z"/>
	<path fill="#38E05B" d="M475.6,112.2C475.6,112.2,475.6,112.2,475.6,112.2c-10.6,0-20.2-1.7-28.3-5.6
		c-11.4-5.4-19.9-14.5-23.5-25.2c-1.9-5.8-2.3-11.7-2.4-16.2c-0.3-13.5,2.1-32.5,14.8-46.1c9.6-10.3,24.2-16.2,40.1-16.2
		c0.5,0,0.9,0,1.4,0c15.2,0.3,29.5,6.4,41.5,12.4c9.8,4.8,15.5,22,15.7,29.5c0.4,13.8,0.8,31.1-8.3,45
		c-8.8,13.4-25.7,21.5-46.4,22.5C478.6,112.3,477.1,112.2,475.6,112.2z M476.4,13.9c-12.9,0-24.6,4.6-32.2,12.7
		c-10.2,11-12.1,27-11.9,38.5c0.1,5.6,0.7,9.6,1.8,13.1c2.6,7.9,9.1,15,17.8,19.1c6.7,3.1,14.6,5,23.6,5c0,0,0,0,0,0
		c1.3,0,2.7-0.3,4-0.3c8.1-0.4,28.1-3.1,37.9-18c6.7-10.2,6.9-23.6,6.5-38.7c-0.2-6-5.4-17.9-9.6-20c-11.5-5.7-23.9-11-36.9-11.2
		C477.1,13.9,476.8,13.9,476.4,13.9z"/>
	<path fill="#D8D830" d="M290,115.1c-0.2,0-0.3,0-0.5,0c-3-0.3-5.2-2.9-5-5.9c0.6-7,2.4-28.1,18.1-35.7c5.8-2.8,12.2-3.1,17.9-3.3
		c6.4-0.3,12-0.5,15.4-3.8c3.9-3.8,3.8-10.2,3.7-17.7c-0.1-7.6-0.3-16.3,4.5-23.4c5.7-8.5,15.6-11.1,24.3-13.4
		c7.6-2,14.8-3.9,18-9.1c1.6-2.6,4.9-3.4,7.5-1.8c2.6,1.6,3.4,4.9,1.8,7.5c-5.5,8.9-15.6,11.6-24.5,13.9c-7.5,2-14.6,3.9-18,8.9
		c-2.9,4.3-2.8,10.6-2.6,17.2c0.2,8.8,0.3,18.7-7,25.8c-6.4,6.2-15,6.5-22.5,6.9c-5.1,0.2-9.9,0.4-13.7,2.2
		c-6.8,3.3-10.7,12.1-11.9,26.8C295.2,112.9,292.8,115.1,290,115.1z"/>
	<path fill="#B23F69" d="M153.9,111.4c-1.9,0-3.7-1-4.7-2.7c-1.1-1.9-1-4.2,0.3-6c4.6-6.3,8.4-13.6,12.1-20.6l24.3-46.4
		c4.7-9,9.6-18.3,13-27.9c0.7-2,2.6-3.5,4.8-3.6c2.2-0.1,4.2,1,5.2,2.9c16.2,31.2,31.4,63.5,45.2,95.9c0.7,1.7,0.5,3.7-0.5,5.3
		c-1.1,1.5-2.9,2.4-4.8,2.3c-16.5-0.9-33.6-1.8-50.5-1.8c-16.3,0-30.5,0.8-43.6,2.6C154.4,111.4,154.2,111.4,153.9,111.4z
		 M204.7,22.6c-2.8,6.2-6,12.2-9,18.1l-24.3,46.4c-2.1,4-4.2,8.1-6.6,12.1c10.3-0.9,21.4-1.4,33.5-1.4c14.2,0,28.4,0.6,42.3,1.3
		C229.4,73.4,217.4,47.7,204.7,22.6z"/>
</g>
</svg>
