<?xml version="1.0" encoding="utf-8"?>
<!-- Generator: Adobe Illustrator 18.0.0, SVG Export Plug-In . SVG Version: 6.00 Build 0)  -->
<!DOCTYPE svg PUBLIC "-//W3C//DTD SVG 1.1//EN" "http://www.w3.org/Graphics/SVG/1.1/DTD/svg11.dtd">
<svg version="1.1" id="Capa_1" xmlns="http://www.w3.org/2000/svg" xmlns:xlink="http://www.w3.org/1999/xlink" x="0px" y="0px"
	 viewBox="0 0 1192 192.8" enable-background="new 0 0 1192 192.8" xml:space="preserve">
<g>
	<path fill="#1D1D1B" d="M62.8,67c-3.4-1.8-7.6-2.7-12.5-2.7c-8.8,0-15.9,3-21.2,9c-5,5.4-7.5,12.8-7.5,22c0,10.5,3.2,18.5,9.5,24.2
		c5.2,4.7,11.6,7,19.3,7c5,0,9.4-1,13.1-3.1c3.7-2.1,7.8-5.6,12.1-10.7l14.3,13.9c-4.7,5.1-9,9-13.1,11.6
		c-7.9,5.1-16.7,7.6-26.6,7.6c-15.2,0-27.7-5.4-37.5-16.3C4.3,119.9,0,108.5,0,95.2C0,80,5.4,67.5,16.3,57.6
		c9.3-8.4,20.6-12.7,33.9-12.7c7.6,0,14.4,1.4,20.5,4.3c6.1,2.9,12.2,7.6,18.5,14.2L74.9,77.3C70.2,72.2,66.2,68.8,62.8,67z"/>
	<path fill="#1D1D1B" d="M178.7,142.8v-8.3c-9.6,7.5-19.4,11.2-29.3,11.2c-7.9,0-15.5-2.1-22.9-6.4c-7.9-4.5-14-10.7-18.4-18.4
		c-4.5-7.8-6.8-16.4-6.8-25.7c0-15.3,5.5-27.9,16.6-37.8c9.4-8.4,19.9-12.6,31.5-12.6c9.8,0,19.6,3.7,29.3,11.2v-8.3H200v95H178.7z
		 M130.3,73.2c-5,5.4-7.5,12.8-7.5,22c0,10.5,3.2,18.6,9.6,24.3c5.2,4.6,11.4,6.9,18.6,6.9c8.3,0,15.1-2.9,20.4-8.8
		c5-5.5,7.5-13,7.5-22.6c0-10.4-3.2-18.4-9.5-24c-5.1-4.5-11.4-6.8-18.8-6.8C142.6,64.2,135.8,67.2,130.3,73.2z"/>
	<path fill="#1D1D1B" d="M226.3,0h21.3v56.1c9.7-7.5,19.5-11.2,29.3-11.2c7.9,0,15.5,2.1,22.9,6.4c7.9,4.5,14.1,10.6,18.5,18.3
		c4.5,7.8,6.7,16.4,6.7,25.6c0,15.3-5.5,28-16.6,38c-9.4,8.4-19.9,12.6-31.5,12.6c-9.9,0-19.7-3.7-29.3-11.2v8.3h-21.3V0z
		 M255.1,72.9c-5,5.6-7.5,13-7.5,22.3c0,10.6,3.2,18.8,9.6,24.5c5,4.5,11.1,6.7,18.3,6.7c8.2,0,15-3,20.4-8.9
		c5.1-5.6,7.6-13.1,7.6-22.7c0-9.5-2.9-17-8.6-22.6c-5.4-5.3-12-8-19.7-8C267.1,64.2,260.4,67.1,255.1,72.9z"/>
	<path fill="#1D1D1B" d="M361.2,103.5c1,5.1,2.9,9.4,5.5,13c4.9,6.6,12,9.9,21.2,9.9c5,0,9.6-1.1,13.8-3.2c4.3-2.2,7.6-5.2,10.1-9
		l1.9-3l18.4,7.6c-10.7,18-25.5,27-44.4,27c-14.6,0-26.6-5.3-35.9-15.8c-8.5-9.7-12.8-21.3-12.8-34.7c0-15.6,5.4-28.4,16.3-38.4
		c8.8-8,19.1-12,31-12c13.5,0,24.8,5,33.8,15.1c4.6,5.1,8,11.5,10.3,19.4c1.7,5.9,2.5,11.9,2.5,18.2c0,1,0,3.1-0.1,6.1H361.2z
		 M405.1,72.3c-4.5-5.7-10.6-8.6-18.3-8.6c-6.5,0-12,2-16.5,6.1c-4.5,4.1-7.5,9.8-9.1,17.1h50.6C410.3,81,408,76.1,405.1,72.3z"/>
	<path fill="#1D1D1B" d="M474,123.6h53.9v19.3H446v-16.2L498,67h-49V47.8h76.9v16.3L474,123.6z"/>
	<path fill="#1D1D1B" d="M615.7,142.8v-8.3c-9.6,7.5-19.4,11.2-29.3,11.2c-7.9,0-15.5-2.1-22.9-6.4c-7.9-4.5-14-10.7-18.4-18.4
		c-4.5-7.8-6.8-16.4-6.8-25.7c0-15.3,5.5-27.9,16.6-37.8c9.4-8.4,19.9-12.6,31.5-12.6c9.8,0,19.6,3.7,29.3,11.2v-8.3H637v95H615.7z
		 M567.3,73.2c-5,5.4-7.5,12.8-7.5,22c0,10.5,3.2,18.6,9.6,24.3c5.2,4.6,11.4,6.9,18.6,6.9c8.3,0,15.1-2.9,20.4-8.8
		c5-5.5,7.5-13,7.5-22.6c0-10.4-3.2-18.4-9.5-24c-5.1-4.5-11.4-6.8-18.8-6.8C579.6,64.2,572.8,67.2,567.3,73.2z"/>
	<path fill="#1D1D1B" d="M734.7,142.8v-8.3c-9.6,7.5-19.4,11.2-29.3,11.2c-7.9,0-15.5-2.1-22.9-6.4c-7.9-4.5-14-10.7-18.4-18.4
		c-4.5-7.8-6.8-16.4-6.8-25.7c0-15.3,5.5-27.9,16.6-37.8c9.4-8.4,19.9-12.6,31.5-12.6c9.8,0,19.6,3.7,29.3,11.2V0H756v142.8H734.7z
		 M686.4,73.1c-5.1,5.5-7.6,12.9-7.6,22.1c0,10.5,3.2,18.6,9.6,24.3c5.3,4.6,11.5,6.9,18.6,6.9c8.2,0,14.9-2.9,20.1-8.7
		c5.1-5.6,7.6-13.1,7.6-22.7c0-10.4-3.2-18.4-9.5-24.1c-5-4.5-11.2-6.7-18.6-6.7C698.6,64.2,691.9,67.2,686.4,73.1z"/>
	<path fill="#1D1D1B" d="M798.2,103.5c1,5.1,2.9,9.4,5.5,13c4.9,6.6,12,9.9,21.2,9.9c5,0,9.6-1.1,13.8-3.2c4.3-2.2,7.6-5.2,10.1-9
		l1.9-3l18.4,7.6c-10.7,18-25.5,27-44.4,27c-14.6,0-26.6-5.3-35.9-15.8c-8.5-9.7-12.8-21.3-12.8-34.7c0-15.6,5.4-28.4,16.3-38.4
		c8.8-8,19.1-12,31-12c13.5,0,24.8,5,33.8,15.1c4.6,5.1,8,11.5,10.3,19.4c1.7,5.9,2.5,11.9,2.5,18.2c0,1,0,3.1-0.1,6.1H798.2z
		 M842.1,72.3c-4.5-5.7-10.6-8.6-18.3-8.6c-6.5,0-12,2-16.5,6.1c-4.5,4.1-7.5,9.8-9,17.1h50.6C847.3,81,845,76.1,842.1,72.3z"/>
	<path fill="#1D1D1B" d="M911.7,47.8v8.3c9.6-7.5,19.4-11.2,29.3-11.2c7.9,0,15.5,2.1,22.9,6.4c7.9,4.5,14,10.7,18.4,18.4
		c4.5,7.8,6.8,16.4,6.8,25.7c0,15.3-5.5,27.9-16.6,37.8c-9.4,8.4-19.9,12.6-31.5,12.6c-9.8,0-19.6-3.7-29.3-11.2v58.3h-21.3v-145
		H911.7z M919.2,72.9c-5.1,5.6-7.6,13.1-7.6,22.6c0,10.5,3.2,18.5,9.5,24.2c5,4.5,11.2,6.7,18.4,6.7c5.2,0,10-1.3,14.4-4
		c9.1-5.5,13.6-14.5,13.6-27c0-10.5-3.2-18.6-9.6-24.3c-5.2-4.6-11.4-6.9-18.6-6.9C931.2,64.2,924.5,67.1,919.2,72.9z"/>
	<path fill="#1D1D1B" d="M1025.2,103.5c1,5.1,2.9,9.4,5.5,13c4.9,6.6,12,9.9,21.2,9.9c5,0,9.6-1.1,13.8-3.2c4.3-2.2,7.6-5.2,10.1-9
		l1.9-3l18.4,7.6c-10.7,18-25.5,27-44.4,27c-14.6,0-26.6-5.3-35.9-15.8c-8.5-9.7-12.8-21.3-12.8-34.7c0-15.6,5.4-28.4,16.3-38.4
		c8.8-8,19.1-12,31-12c13.5,0,24.8,5,33.8,15.1c4.6,5.1,8,11.5,10.3,19.4c1.7,5.9,2.5,11.9,2.5,18.2c0,1,0,3.1-0.1,6.1H1025.2z
		 M1069.1,72.3c-4.5-5.7-10.6-8.6-18.3-8.6c-6.5,0-12,2-16.5,6.1c-4.5,4.1-7.5,9.8-9,17.1h50.6C1074.3,81,1072.1,76.1,1069.1,72.3z"
		/>
	<path fill="#1D1D1B" d="M1138.1,123.6h53.9v19.3H1110v-16.2l52-59.6h-49V47.8h76.9v16.3L1138.1,123.6z"/>
</g>
</svg>
