<?xml version="1.0" encoding="utf-8"?>
<!-- Generator: Adobe Illustrator 18.0.0, SVG Export Plug-In . SVG Version: 6.00 Build 0)  -->
<!DOCTYPE svg PUBLIC "-//W3C//DTD SVG 1.1//EN" "http://www.w3.org/Graphics/SVG/1.1/DTD/svg11.dtd">
<svg version="1.1" id="Capa_1" xmlns="http://www.w3.org/2000/svg" xmlns:xlink="http://www.w3.org/1999/xlink" x="0px" y="0px"
	 viewBox="0 0 200 200" enable-background="new 0 0 200 200" xml:space="preserve">
<path fill="#1D1D1B" d="M121.4,66c-4.1-2.2-9.1-3.3-14.9-3.3c-10.5,0-19,3.6-25.5,10.8c-6,6.5-9,15.3-9,26.4
	c0,12.6,3.8,22.2,11.4,29c6.3,5.6,14,8.4,23.1,8.4c6,0,11.3-1.2,15.8-3.7c4.5-2.5,9.3-6.8,14.5-12.9l17.2,16.7
	c-5.6,6.1-10.8,10.8-15.7,13.9c-9.5,6.1-20.1,9.2-31.9,9.2c-18.3,0-33.2-6.5-45-19.6c-10.2-11.5-15.3-25.2-15.3-41.1
	c0-18.3,6.5-33.3,19.6-45.2c11.2-10.1,24.8-15.2,40.7-15.2c9.1,0,17.3,1.7,24.6,5.2c7.3,3.5,14.7,9.1,22.2,17L136,78.4
	C130.4,72.3,125.5,68.1,121.4,66z"/>
</svg>
