<?xml version="1.0" standalone="no"?>
<!DOCTYPE svg PUBLIC "-//W3C//DTD SVG 20010904//EN"
 "http://www.w3.org/TR/2001/REC-SVG-20010904/DTD/svg10.dtd">
<svg version="1.0" xmlns="http://www.w3.org/2000/svg"
 width="200.000000pt" height="200.000000pt" viewBox="0 0 200.000000 200.000000"
 preserveAspectRatio="xMidYMid meet">
<metadata>
Created by potrace 1.11, written by Peter Selinger 2001-2013
</metadata>
<g transform="translate(0.000000,200.000000) scale(0.100000,-0.100000)"
fill="#000000" stroke="none">
<path d="M935 1593 c-213 -43 -377 -193 -451 -413 -28 -85 -26 -272 5 -365 34
-103 76 -171 155 -250 79 -79 158 -125 256 -149 220 -53 424 0 583 153 l58 56
-86 84 -86 85 -50 -51 c-75 -75 -137 -106 -229 -111 -136 -8 -238 39 -307 142
-42 61 -55 111 -59 212 -5 132 33 235 113 304 62 55 117 74 218 77 78 2 98 -1
143 -22 29 -13 77 -48 107 -76 31 -29 57 -50 60 -48 2 2 40 40 85 83 l80 80
-37 39 c-59 61 -178 135 -252 157 -84 26 -214 31 -306 13z"/>
</g>
</svg>
